# xmcd
#
# Track frame offsets:
#	150
#	13173
#	29052
#	42859
#	57490
#	70344
#	86311
#	102221
#	117746
#	137668
#	151245
#	167833
#	181676
#	198078
#	217183
#	231203
#	249899
#	266352
#	285002
#
# Disc length: 4020 seconds
#
# Revision: 0
# Processed by: cddbd v1.5.1PL0 Copyright (c) Steve Scherf et al.
# Submitted via: EasyCDDAExtractor 8.2.1.1
#
DISCID=040fb213
DTITLE=Dean Brothers - Love Letters
DYEAR=1900
DGENRE=Country
TTITLE0=C C Rider
TTITLE1=Little Richard Medley
TTITLE2=Six Days On The Road
TTITLE3=Love Letters
TTITLE4=It Doesn't Matter Anymore
TTITLE5=Since You've Been Missing
TTITLE6=Bring It On
TTITLE7=Burning Love
TTITLE8=El Paso
TTITLE9=You're So Square
TTITLE10=Okie From Muckogee
TTITLE11=Rock A Hula Baby
TTITLE12=What I've Got In Mind
TTITLE13=My Baby Thinks She's A Train
TTITLE14=It's Too Late
TTITLE15=Hank Williams Medley
TTITLE16=All In The Game
TTITLE17=American Trilogy
TTITLE18=Sharp Dressed Man
EXTD=
EXTT0=
EXTT1=
EXTT2=
EXTT3=
EXTT4=
EXTT5=
EXTT6=
EXTT7=
EXTT8=
EXTT9=
EXTT10=
EXTT11=
EXTT12=
EXTT13=
EXTT14=
EXTT15=
EXTT16=
EXTT17=
EXTT18=
PLAYORDER=
